<svg width="10" height="15" viewBox="0 0 10 15" fill="none" xmlns="http://www.w3.org/2000/svg">
<path d="M9.14062 15.0002C8.94531 15.0002 8.76953 14.935 8.61328 14.8048L0.332031 8.14468C0.123698 7.97541 0.0195312 7.75406 0.0195312 7.48062C0.0195312 7.20718 0.123698 6.98583 0.332031 6.81656L8.57422 0.195463C8.75651 0.0522336 8.96484 -0.00636018 9.19922 0.0196815C9.43359 0.0457232 9.6224 0.14989 9.76562 0.332181C9.92188 0.514473 9.98698 0.722807 9.96094 0.957182C9.9349 1.19156 9.83073 1.38036 9.64844 1.52359L2.22656 7.48062L9.6875 13.4767C9.86979 13.6199 9.97396 13.8087 10 14.0431C10.026 14.2775 9.96094 14.4858 9.80469 14.6681C9.63542 14.8895 9.41406 15.0002 9.14062 15.0002Z" fill="url(#paint0_linear_11_82)"/>
<defs>
<linearGradient id="paint0_linear_11_82" x1="-54.4778" y1="-15.0697" x2="-7.68402" y2="58.6987" gradientUnits="userSpaceOnUse">
<stop stop-color="#4FF5AC"/>
<stop offset="1" stop-color="#3693EB"/>
</linearGradient>
</defs>
</svg>
