<svg width="12" height="14" viewBox="0 0 12 14" fill="none" xmlns="http://www.w3.org/2000/svg">
<path d="M0.837093 12.2714C0.837093 12.5875 0.962669 12.8907 1.1862 13.1142C1.40973 13.3377 1.71289 13.4633 2.02901 13.4633H9.18052C9.49664 13.4633 9.79981 13.3377 10.0233 13.1142C10.2469 12.8907 10.3724 12.5875 10.3724 12.2714V3.92796H0.837093V12.2714ZM7.5913 5.91449C7.5913 5.80912 7.63315 5.70807 7.70766 5.63356C7.78217 5.55905 7.88323 5.51719 7.9886 5.51719C8.09397 5.51719 8.19503 5.55905 8.26954 5.63356C8.34405 5.70807 8.38591 5.80912 8.38591 5.91449V11.4768C8.38591 11.5822 8.34405 11.6832 8.26954 11.7577C8.19503 11.8322 8.09397 11.8741 7.9886 11.8741C7.88323 11.8741 7.78217 11.8322 7.70766 11.7577C7.63315 11.6832 7.5913 11.5822 7.5913 11.4768V5.91449ZM5.20746 5.91449C5.20746 5.80912 5.24932 5.70807 5.32383 5.63356C5.39834 5.55905 5.49939 5.51719 5.60477 5.51719C5.71014 5.51719 5.81119 5.55905 5.8857 5.63356C5.96021 5.70807 6.00207 5.80912 6.00207 5.91449V11.4768C6.00207 11.5822 5.96021 11.6832 5.8857 11.7577C5.81119 11.8322 5.71014 11.8741 5.60477 11.8741C5.49939 11.8741 5.39834 11.8322 5.32383 11.7577C5.24932 11.6832 5.20746 11.5822 5.20746 11.4768V5.91449ZM2.82362 5.91449C2.82362 5.80912 2.86548 5.70807 2.93999 5.63356C3.0145 5.55905 3.11556 5.51719 3.22093 5.51719C3.3263 5.51719 3.42736 5.55905 3.50187 5.63356C3.57638 5.70807 3.61823 5.80912 3.61823 5.91449V11.4768C3.61823 11.5822 3.57638 11.6832 3.50187 11.7577C3.42736 11.8322 3.3263 11.8741 3.22093 11.8741C3.11556 11.8741 3.0145 11.8322 2.93999 11.7577C2.86548 11.6832 2.82362 11.5822 2.82362 11.4768V5.91449ZM10.7697 1.54413H7.78995L7.55653 1.07978C7.50709 0.980503 7.43092 0.896997 7.3366 0.838651C7.24228 0.780306 7.13356 0.749437 7.02265 0.749516H4.1844C4.07374 0.749091 3.9652 0.779845 3.87122 0.838255C3.77724 0.896666 3.70161 0.980369 3.653 1.07978L3.41958 1.54413H0.439787C0.334414 1.54413 0.233358 1.58599 0.158849 1.6605C0.0843394 1.73501 0.0424805 1.83606 0.0424805 1.94143L0.0424805 2.73605C0.0424805 2.84142 0.0843394 2.94247 0.158849 3.01698C0.233358 3.09149 0.334414 3.13335 0.439787 3.13335H10.7697C10.8751 3.13335 10.9762 3.09149 11.0507 3.01698C11.1252 2.94247 11.1671 2.84142 11.1671 2.73605V1.94143C11.1671 1.83606 11.1252 1.73501 11.0507 1.6605C10.9762 1.58599 10.8751 1.54413 10.7697 1.54413Z" fill="white"/>
</svg>
