<svg width="126" height="28" viewBox="0 0 126 28" fill="none" xmlns="http://www.w3.org/2000/svg">
<g opacity="0.399228">
<path fill-rule="evenodd" clip-rule="evenodd" d="M10.5 17.8362C10.5 23.5902 14.854 27.8812 20.713 27.8812C26.6 27.8812 30.989 23.6042 30.989 17.8362C30.989 12.0682 26.6 7.78418 20.741 7.78418C14.882 7.78418 10.5 12.0822 10.5 17.8362ZM25.2101 13.3214C26.3945 14.5177 27.0252 16.1544 26.95 17.8362C27.0231 19.5173 26.3916 21.1528 25.2078 22.3487C24.0239 23.5445 22.3948 24.1924 20.713 24.1362C19.0312 24.1946 17.4015 23.5473 16.2182 22.3507C15.0349 21.1541 14.4058 19.5173 14.483 17.8362C14.4058 16.1551 15.0349 14.5183 16.2182 13.3217C17.4015 12.1251 19.0312 11.4777 20.713 11.5362C22.3954 11.4779 24.0257 12.125 25.2101 13.3214Z" fill="#333333"/>
<path d="M33.3828 3.59814H37.3168V27.3981H33.3828V3.59814Z" fill="#333333"/>
<path d="M49.5601 27.8809C44.3031 27.8809 40.8521 24.4789 40.8521 19.3269V8.25293H44.8001V18.7529C44.8001 22.0779 46.6201 24.1009 49.5741 24.1009C52.5281 24.1009 54.3411 22.0429 54.3411 18.7529V8.25293H58.2751V19.3269C58.2751 24.4789 54.8591 27.8809 49.5741 27.8809H49.5601Z" fill="#333333"/>
<path d="M71.9319 7.81902C76.4119 7.81902 79.2119 11.158 79.2119 15.876V27.412H75.2709V16.681C75.2709 13.181 73.7589 11.354 70.8819 11.354C67.8719 11.354 65.7299 13.769 65.7299 17.157V27.412H61.7959V8.25302H64.5399L65.3029 10.927C66.8929 8.8962 69.3538 7.7424 71.9319 7.81902Z" fill="#333333"/>
<path fill-rule="evenodd" clip-rule="evenodd" d="M101.983 27.4052V8.26724H98.952L98.49 10.6612C96.6422 8.7976 94.114 7.76862 91.49 7.81224C88.8191 7.74975 86.2397 8.78668 84.3551 10.6804C82.4707 12.5742 81.4464 15.1587 81.522 17.8292C81.4548 20.5 82.4808 23.0823 84.3626 24.9787C86.2444 26.875 88.8188 27.9209 91.49 27.8742C94.0858 27.9176 96.5886 26.9075 98.427 25.0742L98.805 27.4052H101.983ZM94.9697 12.2426C96.9363 13.4074 98.1114 15.5518 98.035 17.8362C98.1114 20.1206 96.9363 22.265 94.9697 23.4299C93.0031 24.5947 90.5579 24.5947 88.5912 23.4299C86.6246 22.265 85.4495 20.1206 85.526 17.8362C85.4495 15.5518 86.6246 13.4074 88.5912 12.2426C90.5579 11.0777 93.0031 11.0777 94.9697 12.2426Z" fill="#333333"/>
<path d="M7.42 23.8351C5.103 23.8351 3.829 22.5681 3.829 20.2791V12.0121H7.7V8.25314H3.801V3.59814H0V20.5941C0 24.7941 2.478 27.4121 6.678 27.4121H9.604V23.8351H7.42Z" fill="#333333"/>
<path d="M115.528 8.27405L116.172 7.63005L116.816 8.27405H115.528Z" fill="#262626"/>
<path d="M117.726 10.4721L118.37 9.82808L117.726 9.18408V10.4721Z" fill="#262626"/>
<path d="M116.172 7.63L114.625 6.076V0H117.726V6.076L116.172 7.63Z" fill="#A6A6A6"/>
<path d="M118.37 9.82793L119.924 8.27393H126V11.3749H119.924L118.37 9.82793Z" fill="#A6A6A6"/>
<path d="M117.726 11.375H119.924L124.222 15.673L122.024 17.871L117.726 13.573V11.375Z" fill="#BFBFBF"/>
<path d="M114.625 8.27383H112.427L108.129 3.97583L110.327 1.77783L114.625 6.07583V8.27383Z" fill="#BFBFBF"/>
<path d="M117.726 8.27383V6.07583L122.024 1.77783L124.222 3.97583L119.924 8.27383H117.726Z" fill="#BFBFBF"/>
<rect x="106.351" y="8.27393" width="11.382" height="3.108" fill="#4D4D4D"/>
<rect x="114.625" y="19.6489" width="11.382" height="3.108" transform="rotate(-90 114.625 19.6489)" fill="#4D4D4D"/>
<path d="M116.816 8.27393H115.528L108.129 15.6729L110.327 17.8709L117.726 10.4719V9.18393L116.816 8.27393Z" fill="#4D4D4D"/>
<path d="M114.625 6.07617V8.27417H115.528L116.172 7.63017L114.625 6.07617Z" fill="#8C8C8C"/>
<path d="M119.924 8.27393H117.726V9.18393L118.37 9.82793L119.924 8.27393Z" fill="#404040"/>
<path d="M119.924 11.3751L118.37 9.82812L117.726 10.4721V11.3751H119.924Z" fill="#8C8C8C"/>
<path d="M117.726 6.07617V8.27417H116.816L116.172 7.63017L117.726 6.07617Z" fill="#404040"/>
</g>
</svg>
